<svg width="720" height="260" viewBox="0 0 720 260" fill="none" xmlns="http://www.w3.org/2000/svg">
  <rect width="720" height="260" rx="24" fill="#0F172A"/>
  <path d="M0 194C60 180 120 104 180 112C240 120 300 218 360 218C420 218 480 118 540 104C600 90 660 154 720 138V260H0V194Z" fill="#1E293B"/>
  <path d="M0 170C60 156 120 94 180 100C240 106 300 194 360 194C420 194 480 114 540 100C600 86 660 132 720 122" stroke="#60A5FA" stroke-width="3"/>
  <path d="M0 198C60 184 120 132 180 138C240 144 300 220 360 220C420 220 480 142 540 126C600 110 660 160 720 152" stroke="#F2B24B" stroke-width="3"/>
  <circle cx="182" cy="100" r="8" fill="#60A5FA"/>
  <circle cx="360" cy="194" r="8" fill="#93C5FD"/>
  <circle cx="540" cy="100" r="8" fill="#F2B24B"/>
</svg>
